<svg id="Layer_1" data-name="Layer 1" xmlns="http://www.w3.org/2000/svg" viewBox="0 0 32 32"><defs><style>.cls-1{fill:#fdeb01;}</style></defs><title>bintang1</title><path class="cls-1" d="M17.93,2l3.32,6.73A2.07,2.07,0,0,0,22.8,9.88L30.23,11a2.07,2.07,0,0,1,1.15,3.53L26,19.72a2.07,2.07,0,0,0-.6,1.83l1.27,7.39a2.07,2.07,0,0,1-3,2.18L17,27.64a2.07,2.07,0,0,0-1.93,0L8.47,31.13a2.07,2.07,0,0,1-3-2.18l1.27-7.39a2.07,2.07,0,0,0-.6-1.83L.77,14.49A2.07,2.07,0,0,1,1.91,11L9.34,9.88a2.07,2.07,0,0,0,1.56-1.13L14.21,2A2.07,2.07,0,0,1,17.93,2Z"/></svg>