<?xml version="1.0"?>
<svg xmlns="http://www.w3.org/2000/svg" xmlns:xlink="http://www.w3.org/1999/xlink" version="1.1" id="Capa_1" x="0px" y="0px" viewBox="0 0 512 512" style="enable-background:new 0 0 512 512;" xml:space="preserve" width="512px" height="512px"><g><g>
	<g>
		<path d="M507.296,323.712l-59.929-199.268H354.35c-7.177-43.336-44.913-76.488-90.251-76.488H247.9    c-45.339,0-83.073,33.154-90.251,76.488H64.632L4.704,323.712c-10.023,33.328-3.862,68.459,16.902,96.387    c20.765,27.928,52.634,43.946,87.435,43.946h293.916c34.803,0,66.671-16.018,87.435-43.947    C511.159,392.171,517.319,357.038,507.296,323.712z M247.9,77.952h16.198c28.733,0,52.919,19.812,59.632,46.491H188.268    C194.982,97.764,219.167,77.952,247.9,77.952z M69.668,211.852l17.266-57.411h338.13l16.603,55.206v6.279    c0,43.832-36.762,79.492-80.589,79.492h-52.587v-28.143H203.507v28.143H149.15c-43.827,0-79.482-35.66-79.482-79.492V211.852z     M278.495,297.271v26.289h-44.992v-26.289H278.495z M466.322,402.201c-15.048,20.24-38.143,31.848-63.364,31.848H109.042    c-25.22,0-48.315-11.608-63.363-31.847c-15.049-20.24-19.514-45.699-12.251-69.852l19.383-64.452    c18.533,34.222,54.765,57.516,96.338,57.516h54.357v28.143h104.986v-28.143h52.587c42.432,0,79.302-24.267,97.465-59.651    l20.026,66.586C485.834,356.502,481.369,381.962,466.322,402.201z" data-original="#000000" class="active-path" data-old_color="#000000" fill="#00AFE9"/>
	</g>
</g></g> </svg>
